<svg id="Слой_1" data-name="Слой 1" xmlns="http://www.w3.org/2000/svg" viewBox="0 0 250 40"><defs><style>.cls-1{fill:red;}.cls-2{fill:#fff;}</style></defs><title>Монтажная область 1</title><ellipse class="cls-1" cx="20.84" cy="19.87" rx="4.78" ry="4.84"/><path class="cls-2" d="M20.84,39a4.62,4.62,0,0,1,0-9.23A9.77,9.77,0,1,0,11.12,20,4.56,4.56,0,1,1,2,20,19,19,0,0,1,13.51,2.49a18.77,18.77,0,0,1,14.66,0,19.11,19.11,0,0,1,10,24.91,19,19,0,0,1-10,10.11A18.58,18.58,0,0,1,20.84,39Z"/><path class="cls-2" d="M60.16,26.17v2.1H48V11.34H59.82v2.11H50.4v5.2h8.4V20.7H50.4v5.47Zm5.06-14.83h7.06A10.09,10.09,0,0,1,77,12.41a7.68,7.68,0,0,1,3.18,3,8.41,8.41,0,0,1,1.14,4.4,8.57,8.57,0,0,1-1.14,4.43,7.74,7.74,0,0,1-3.18,3,10.09,10.09,0,0,1-4.71,1.06H65.22Zm6.91,14.83a7.64,7.64,0,0,0,3.57-.8,5.77,5.77,0,0,0,2.39-2.22,6.65,6.65,0,0,0,.83-3.34,6.48,6.48,0,0,0-.83-3.31,5.71,5.71,0,0,0-2.39-2.25,7.52,7.52,0,0,0-3.57-.8H67.62V26.17ZM92.7,11.34a7.66,7.66,0,0,1,5.11,1.58,5.33,5.33,0,0,1,1.87,4.33,5.32,5.32,0,0,1-1.87,4.32,7.66,7.66,0,0,1-5.11,1.58H88.56v5.12H86.17V11.34ZM92.63,21a5.4,5.4,0,0,0,3.46-1,3.48,3.48,0,0,0,1.2-2.83,3.39,3.39,0,0,0-1.2-2.81,5.29,5.29,0,0,0-3.46-1H88.56V21Zm11.76-9.7h2.39V26.17h9.06v2.1H104.39ZM130.51,24h-8.9l-1.84,4.23h-2.46l7.58-16.93h2.37l7.6,16.93h-2.51Zm-.84-1.93-3.61-8.3-3.61,8.3ZM141,13.45H135.3V11.34h13.84v2.11H143.4V28.27H141Zm14.3,0v5.9h8.39v2.08h-8.39v6.84h-2.39V11.34h11.81v2.11Zm21.34,15a9.36,9.36,0,0,1-4.56-1.11,8.41,8.41,0,0,1-3.2-3.12,8.66,8.66,0,0,1-1.15-4.43,8.63,8.63,0,0,1,1.15-4.43,8.2,8.2,0,0,1,3.2-3.09,9.67,9.67,0,0,1,9.11,0,8.14,8.14,0,0,1,3.18,3.09,8.65,8.65,0,0,1,1.14,4.43,8.77,8.77,0,0,1-1.14,4.45,8.38,8.38,0,0,1-3.18,3.1A9.34,9.34,0,0,1,176.67,28.47Zm0-2.15a6.49,6.49,0,0,0,3.3-.85,6.08,6.08,0,0,0,2.32-2.32,6.55,6.55,0,0,0,.86-3.34,6.36,6.36,0,0,0-.86-3.31A6,6,0,0,0,180,14.15a6.39,6.39,0,0,0-3.3-.85,6.64,6.64,0,0,0-3.34.85A6.24,6.24,0,0,0,171,16.5a6.64,6.64,0,0,0-.83,3.31,6.84,6.84,0,0,0,.83,3.34,6.38,6.38,0,0,0,2.35,2.32A6.74,6.74,0,0,0,176.67,26.32Zm24.91,1.95L198,23.07c-.44,0-.79.05-1.05.05h-4.14v5.15h-2.39V11.34h6.53A7.7,7.7,0,0,1,202,12.92a5.35,5.35,0,0,1,1.86,4.33,5.69,5.69,0,0,1-1,3.33,5.36,5.36,0,0,1-2.72,2l4,5.68Zm-4.73-7.2a5.29,5.29,0,0,0,3.46-1,3.48,3.48,0,0,0,1.2-2.83,3.39,3.39,0,0,0-1.2-2.81,5.29,5.29,0,0,0-3.46-1h-4.07v7.62Zm27.62,7.2,0-12.33-6,10.28h-1.1L211.25,16V28.27H209V11.34h2l7,11.9,6.88-11.9h2l0,16.93ZM243.65,24h-8.89l-1.85,4.23h-2.46L238,11.34h2.37L248,28.27h-2.51Zm-.84-1.93-3.61-8.3-3.61,8.3Z"/></svg>