<svg xmlns="http://www.w3.org/2000/svg" xmlns:xlink="http://www.w3.org/1999/xlink" width="1377" height="270" viewBox="0 0 1377 270">
  <metadata><?xpacket begin="﻿" id="W5M0MpCehiHzreSzNTczkc9d"?>
<x:xmpmeta xmlns:x="adobe:ns:meta/" x:xmptk="Adobe XMP Core 5.6-c142 79.160924, 2017/07/13-01:06:39        ">
   <rdf:RDF xmlns:rdf="http://www.w3.org/1999/02/22-rdf-syntax-ns#">
      <rdf:Description rdf:about=""/>
   </rdf:RDF>
</x:xmpmeta>
                                                                                                    
                                                                                                    
                                                                                                    
                                                                                                    
                                                                                                    
                                                                                                    
                                                                                                    
                                                                                                    
                                                                                                    
                                                                                                    
                                                                                                    
                                                                                                    
                                                                                                    
                                                                                                    
                                                                                                    
                                                                                                    
                                                                                                    
                                                                                                    
                                                                                                    
                                                                                                    
                           
<?xpacket end="w"?></metadata>
<defs>
    <style>
      .cls-1 {
        fill: #fff;
        fill-rule: evenodd;
        filter: url(#filter);
      }
    </style>
    <filter id="filter" x="263" y="394" width="1377" height="270" filterUnits="userSpaceOnUse">
      <feOffset result="offset" dy="20" in="SourceAlpha"/>
      <feGaussianBlur result="blur" stdDeviation="5.916"/>
      <feFlood result="flood" flood-color="#004bc5" flood-opacity="0.08"/>
      <feComposite result="composite" operator="in" in2="blur"/>
      <feBlend result="blend" in="SourceGraphic"/>
    </filter>
  </defs>
  <path id="EDPLATFORMA_2020_копия" data-name="EDPLATFORMA 2020 копия" class="cls-1" d="M381.411,438.353V410.291H297.046V606.726h84.365V578.664H327.98V521.137h42.463V493.074H327.98V438.353h53.431Zm77.9,168.373q46.118,0,46.12-48.547V458.838q0-48.545-46.12-48.547H410.375V606.726h48.932Zm15.186-149.291V559.582q0,19.086-15.748,19.082H441.309V438.353h17.436q15.745,0,15.748,19.082h0Zm60.459-47.144V606.726h30.934v-73.8h14.623q46.118,0,46.12-48.548V458.838q0-48.545-46.12-48.547H534.952ZM591.9,442.562q3.8,4.209,3.8,14.312v29.465q0,10.1-3.8,14.312t-11.39,4.209H565.886V438.353h14.623Q588.1,438.353,591.9,442.562ZM734.051,606.726V578.664h-50.9V410.291H652.217V606.726h81.834ZM780.73,410.291l-31.5,196.435h28.4l5.343-35.639h37.964l5.343,35.639H857.5l-31.5-196.435H780.73Zm36,134.137H786.917l14.9-99.34Zm88.3-106.075V606.726h30.934V438.353H968.3V410.291H872.688v28.062h32.34Zm168.442,0V410.291H991.639V606.726h30.931v-81.1h39.94V497.564h-39.94V438.353h50.9Zm69.18-2.245q16.035,0,16.03,19.363V561.546q0,19.363-16.03,19.363t-16.03-19.363V455.471Q1126.62,436.108,1142.65,436.108Zm-34.87,159.955q12.09,12.91,34.87,12.908t34.87-12.908q12.09-12.9,12.1-36.481V457.435q0-23.572-12.1-36.481t-34.87-12.908q-22.77,0-34.87,12.908t-12.09,36.481V559.582Q1095.69,583.155,1107.78,596.063Zm204.44-13.189V552.566q0-33.108-20.52-41.813,20.235-9.535,20.24-39.848V455.471q0-23.007-10.96-34.1-10.98-11.082-34.87-11.084h-46.69V606.726h30.94V526.749h10.68q10.7,0,15.47,5.753t4.78,19.222v30.869q0,15.719,2.81,24.133h31.5q-3.375-7.853-3.38-23.852h0Zm-31.21-124.316v19.363q0,11.226-4.64,16t-13.92,4.771h-12.09V438.353h14.9q15.75,0,15.75,20.2h0Zm61.02-48.267V606.726h27V467.818l23.06,138.908h29.25l21.37-140.872V606.726h29.24V410.291h-43.02L1407.84,549.76l-22.78-139.469h-43.03Zm185.6,0-31.49,196.435h28.4l5.34-35.639h37.97l5.34,35.639h31.21l-31.49-196.435h-45.28Zm36,134.137h-29.81l14.9-99.34Z" transform="translate(-263 -394)"/>
</svg>
