<svg width="30" height="30" viewBox="0 0 30 30" fill="none" xmlns="http://www.w3.org/2000/svg">
<path d="M29.4034 11.5058C29.0056 11.108 28.5224 10.9092 27.9544 10.9092H19.0907V2.04525C19.0907 1.47726 18.8917 0.994194 18.4941 0.596427C18.0964 0.198958 17.6137 0 17.0449 0H12.9544C12.3863 0 11.9033 0.198734 11.5055 0.596501C11.1078 0.994269 10.909 1.47734 10.909 2.04533V10.9093H2.04533C1.47734 10.9093 0.994269 11.1081 0.596502 11.5058C0.198734 11.9036 0 12.3862 0 12.9546V17.0456C0 17.6141 0.19866 18.0968 0.596427 18.4942C0.994194 18.8921 1.47726 19.0908 2.04525 19.0908H10.9089V27.9549C10.9089 28.5229 11.1077 29.0063 11.5055 29.4039C11.9032 29.8013 12.3862 30 12.9543 30H17.0451C17.6135 30 18.0963 29.8013 18.4942 29.4039C18.8921 29.0061 19.0907 28.5229 19.0907 27.9549V19.0908H27.9543C28.5228 19.0908 29.0057 18.8921 29.4034 18.4942C29.801 18.0968 29.9999 17.6141 29.9999 17.0456V12.9546C29.9998 12.3862 29.8013 11.9033 29.4034 11.5058Z" fill="#BE1622"/>
</svg>
