<svg width="26" height="26" viewBox="0 0 26 26" fill="none" xmlns="http://www.w3.org/2000/svg">
<g clip-path="url(#clip0)">
<path d="M10.3769 0.741241H19.35L24.1061 5.46377V16.5321C24.1061 17.1137 23.633 17.5848 23.05 17.5848H10.3769C9.7939 17.5848 9.3208 17.1137 9.3208 16.5321V1.79395C9.3208 1.21235 9.79396 0.741241 10.3769 0.741241Z" fill="#E2574C"/>
<path d="M24.0909 5.47848H20.4098C19.8269 5.47848 19.3538 5.00689 19.3538 4.42577V0.751755L24.0909 5.47848Z" fill="#B53629"/>
<path d="M20.1448 8.72246C20.3217 8.72246 20.4083 8.56877 20.4083 8.41981C20.4083 8.26557 20.318 8.11662 20.1448 8.11662H19.1372C18.9403 8.11662 18.8305 8.27924 18.8305 8.45875V10.9268C18.8305 11.1469 18.9561 11.269 19.1261 11.269C19.2951 11.269 19.4214 11.1469 19.4214 10.9268V10.2494H20.0307C20.2198 10.2494 20.3143 10.0952 20.3143 9.94205C20.3143 9.79206 20.2198 9.64305 20.0307 9.64305H19.4214V8.72246H20.1448ZM16.7394 8.11662H16.0022C15.8021 8.11662 15.66 8.25348 15.66 8.45663V10.929C15.66 11.1811 15.8644 11.2601 16.0106 11.2601H16.7842C17.6998 11.2601 18.3045 10.6595 18.3045 9.73253C18.304 8.75247 17.7348 8.11662 16.7394 8.11662ZM16.7748 10.6506H16.3254V8.72616H16.7304C17.3435 8.72616 17.6101 9.13622 17.6101 9.70203C17.6101 10.2316 17.3482 10.6506 16.7748 10.6506ZM14.0743 8.11662H13.3441C13.1376 8.11662 13.0225 8.25239 13.0225 8.45875V10.9268C13.0225 11.1469 13.1545 11.269 13.3319 11.269C13.5093 11.269 13.6413 11.1469 13.6413 10.9268V10.2062H14.0991C14.6641 10.2062 15.1304 9.80725 15.1304 9.16563C15.1304 8.53772 14.6805 8.11662 14.0743 8.11662ZM14.0622 9.62731H13.6413V8.69616H14.0622C14.322 8.69616 14.4873 8.89827 14.4873 9.16198C14.4867 9.4252 14.322 9.62731 14.0622 9.62731Z" fill="white"/>
</g>
<g clip-path="url(#clip1)">
<path d="M2.83514 8.28313H11.8082L16.5643 13.0057V24.074C16.5643 24.6556 16.0912 25.1267 15.5082 25.1267H2.83514C2.25216 25.1267 1.77905 24.6556 1.77905 24.074V9.33585C1.77905 8.75424 2.25221 8.28313 2.83514 8.28313Z" fill="#E2574C"/>
<path d="M16.5491 13.0204H12.8681C12.2851 13.0204 11.812 12.5488 11.812 11.9677V8.29365L16.5491 13.0204Z" fill="#B53629"/>
<path d="M12.603 16.2644C12.7799 16.2644 12.8665 16.1107 12.8665 15.9617C12.8665 15.8075 12.7762 15.6585 12.603 15.6585H11.5955C11.3985 15.6585 11.2887 15.8211 11.2887 16.0006V18.4687C11.2887 18.6888 11.4144 18.8109 11.5844 18.8109C11.7534 18.8109 11.8796 18.6888 11.8796 18.4687V17.7913H12.489C12.678 17.7913 12.7725 17.6371 12.7725 17.4839C12.7725 17.334 12.678 17.1849 12.489 17.1849H11.8796V16.2644H12.603ZM9.19763 15.6585H8.46046C8.26033 15.6585 8.11827 15.7954 8.11827 15.9985V18.4709C8.11827 18.723 8.32261 18.8019 8.46888 18.8019H9.24249C10.1581 18.8019 10.7627 18.2014 10.7627 17.2744C10.7622 16.2944 10.193 15.6585 9.19763 15.6585ZM9.23303 18.1925H8.78364V16.2681H9.18867C9.80175 16.2681 10.0684 16.6781 10.0684 17.2439C10.0684 17.7735 9.80645 18.1925 9.23303 18.1925ZM6.53259 15.6585H5.80231C5.59583 15.6585 5.48071 15.7943 5.48071 16.0006V18.4687C5.48071 18.6888 5.61272 18.8109 5.79012 18.8109C5.96753 18.8109 6.09953 18.6888 6.09953 18.4687V17.7481H6.55734C7.12234 17.7481 7.58862 17.3491 7.58862 16.7075C7.58867 16.0796 7.13879 15.6585 6.53259 15.6585ZM6.52046 17.1692H6.09959V16.238H6.52046C6.78026 16.238 6.94554 16.4402 6.94554 16.7039C6.94499 16.9671 6.78026 17.1692 6.52046 17.1692Z" fill="white"/>
</g>
<defs>
<clipPath id="clip0">
<rect x="8.26807" y="0.741241" width="16.8436" height="16.8436" fill="white"/>
</clipPath>
<clipPath id="clip1">
<rect x="0.726318" y="8.28313" width="16.8436" height="16.8436" fill="white"/>
</clipPath>
</defs>
</svg>
