<svg width="100" height="100" viewBox="0 0 100 100" fill="none" xmlns="http://www.w3.org/2000/svg">
<g clip-path="url(#clip0)">
<path d="M88.1494 50.0135C87.7028 52.2565 85.7137 53.8904 83.3287 53.9919C82.5777 54.0223 81.9383 54.5703 81.7961 55.3112C81.6439 56.0521 82.0194 56.8031 82.6994 57.1177C84.8611 58.1326 86.0688 60.4059 85.6121 62.6488L85.1858 64.7801C84.6276 67.5913 81.522 69.347 78.8022 68.6772C78.041 68.4945 77.2596 68.3525 76.4883 68.2002C75.3516 67.9769 74.2149 67.7435 73.0783 67.5202C71.5761 67.2158 70.0741 66.9216 68.5722 66.6171C66.786 66.2619 64.9896 65.8964 63.2034 65.5412C61.2042 65.1353 59.2049 64.7396 57.2054 64.3336C55.0742 63.9074 52.9328 63.4811 50.8015 63.0447C48.6093 62.6083 46.4172 62.1618 44.2352 61.7254C42.0634 61.289 39.9017 60.8525 37.7297 60.4162C35.6594 60.0001 33.589 59.584 31.5187 59.1679C29.6209 58.7924 27.7332 58.4067 25.8353 58.0312C24.1912 57.7064 22.5471 57.3715 20.9131 57.0468C19.6039 56.7829 18.2947 56.5191 16.9754 56.2551C16.0721 56.0725 15.1688 55.8898 14.2656 55.7072C13.8494 55.6259 13.4334 55.5347 13.0173 55.4535C12.997 55.4535 12.9767 55.4432 12.9563 55.4432C13.1796 56.4987 13.0781 57.6252 12.591 58.6807C11.5659 60.8932 9.18087 62.0501 6.88733 61.6036C6.20736 61.4716 5.46649 61.7254 5.17218 62.3546L4.25878 64.3336C3.96457 64.9627 4.25878 65.6935 4.79677 66.1299C4.89826 66.2111 78.0512 99.9357 78.1729 99.9661C78.8528 100.098 79.5937 99.8443 79.888 99.2151L80.8014 97.236C81.0957 96.6069 80.8014 95.8762 80.2635 95.4398C78.4367 93.9884 77.7668 91.4208 78.792 89.2084C79.817 86.996 82.202 85.839 84.4956 86.2855C85.1755 86.4175 85.9164 86.1638 86.2107 85.5345L87.1241 83.5555C87.4184 82.9263 87.1241 82.1957 86.5862 81.7592C84.7594 80.3079 84.0896 77.7402 85.1146 75.5279C86.1396 73.3155 88.5246 72.1585 90.8182 72.605C91.4982 72.737 92.2391 72.4832 92.5334 71.854L93.4468 69.875C93.741 69.2458 93.4468 68.515 92.9088 68.0786C91.082 66.6274 90.4122 64.0597 91.4372 61.8473C92.4624 59.6348 94.8473 58.4779 97.1409 58.9244C97.8208 59.0563 98.5617 58.8026 98.856 58.1735L99.8607 55.9812C100.155 55.352 99.881 54.6111 99.2517 54.3169L88.3215 49.2729L88.1494 50.0135Z" fill="#3A5BD1"/>
<path d="M0.980791 49.3133C1.10258 49.3742 80.0708 65.2165 80.2028 65.2165C80.893 65.186 81.5627 64.7598 81.6946 64.0899L82.1209 61.9587C82.2528 61.2787 81.8063 60.6292 81.177 60.3349C79.0661 59.3403 77.8177 57.006 78.2948 54.6109C78.7718 52.2158 80.832 50.5412 83.1662 50.4397C83.8563 50.4093 84.5262 49.983 84.6581 49.3132L84.9727 47.7503L85.0845 47.1718C85.2164 46.4918 84.7697 45.8423 84.1406 45.548C82.0295 44.5534 80.7812 42.2192 81.2583 39.8242C81.7353 37.4289 83.7956 35.7544 86.1298 35.6529C86.8199 35.6224 87.4897 35.1962 87.6217 34.5264L88.0479 32.3951C88.1799 31.7151 87.7332 31.0656 87.104 30.7713C84.993 29.7767 83.7447 27.4425 84.2218 25.0473C84.6988 22.6522 86.759 20.9777 89.0933 20.8762C89.7834 20.8457 90.4531 20.4195 90.5851 19.7496L91.062 17.385C91.1941 16.705 90.7576 16.0453 90.0777 15.9134C90.0777 15.9134 10.7238 0 10.6426 0C10.054 0 9.53638 0.416103 9.41459 1.00474L8.9376 3.36942C8.80566 4.04939 9.25221 4.69891 9.88144 4.99323C11.9924 5.98782 13.2407 8.32205 12.7637 10.7172C12.2867 13.1123 10.2265 14.7869 7.89226 14.8884C7.20204 14.9188 6.53232 15.345 6.40038 16.0149L5.97413 18.1461C5.84219 18.8261 6.28874 19.4756 6.91797 19.7699C9.02893 20.7645 10.2773 23.0988 9.80025 25.4939C9.32325 27.889 7.26303 29.5636 4.9288 29.6651C4.23868 29.6955 3.56885 30.1218 3.43692 30.7916L3.01066 32.9228C2.87873 33.6028 3.32538 34.2523 3.95451 34.5467C6.06557 35.5412 7.31388 37.8755 6.83678 40.2706C6.35979 42.6658 4.29957 44.3404 1.96533 44.4419C1.27521 44.4723 0.605385 44.8986 0.47345 45.5684L0.0471981 47.6997C-0.0949874 48.3796 0.351461 49.019 0.980791 49.3133ZM68.6229 23.3018C68.8969 21.9317 70.2366 21.0387 71.6067 21.3127C72.9768 21.5867 73.8699 22.9263 73.5958 24.2964L70.2467 40.9608L68.1865 51.2315C67.9429 52.4392 66.8875 53.2715 65.7 53.2715C65.5376 53.2715 65.3651 53.2512 65.2028 53.2207C63.8327 52.9467 62.9396 51.6071 63.2136 50.237L65.5174 38.7789L68.6229 23.3018ZM22.8719 14.1171C23.1459 12.747 24.4855 11.8539 25.8556 12.128C27.2257 12.402 28.1188 13.7416 27.8448 15.1117L26.6878 20.8661L25.3787 27.3918L24.3233 32.6489L22.4457 42.0468C22.2023 43.2545 21.1467 44.0868 19.9593 44.0868C19.7969 44.0868 19.6243 44.0665 19.4621 44.036C19.391 44.0258 19.32 44.0055 19.2591 43.9853C18.0006 43.6198 17.2191 42.3512 17.483 41.0523L17.8584 39.1544L18.8429 34.2424L22.8719 14.1171Z" fill="#3A5BD1"/>
</g>
<defs>
<clipPath id="clip0">
<rect width="100" height="100" fill="white"/>
</clipPath>
</defs>
</svg>
