<svg width="111" height="111" viewBox="0 0 111 111" fill="none" xmlns="http://www.w3.org/2000/svg">
<g clip-path="url(#clip0)">
<path d="M106.762 20.5303L38.7799 6.14341C35.9037 5.5349 33.0528 7.39054 32.4443 10.2668L31.1528 18.5668L109.593 35.1659L110.884 26.8659C111.493 23.9908 109.638 21.139 106.762 20.5303Z" fill="#3A5BD1"/>
<path d="M78.1737 36.9261C77.3797 34.0665 74.3914 32.3763 71.5327 33.1691L58.6273 36.7518L28.2033 30.313L24.8573 46.1224L3.95142 51.9249C1.09297 52.7179 -0.597252 55.7062 0.195532 58.5649L11.9772 101.02C12.7713 103.879 15.7598 105.57 18.6182 104.776L86.1995 86.0218C89.058 85.2277 90.7482 82.2405 89.9554 79.3808L87.9331 72.0924L95.5125 73.6949C98.3887 74.3045 101.24 72.4488 101.848 69.5726L106.643 46.9123L79.342 41.135L78.1737 36.9261ZM85.9784 58.5037L87.6498 50.6045C87.9008 49.4218 89.0736 48.6589 90.2561 48.9087L98.1553 50.5811C99.3391 50.8322 100.102 52.0037 99.8522 53.1875L98.1809 61.0867C97.9299 62.2694 96.7573 63.0334 95.5745 62.7825L87.6754 61.1112C86.4904 60.8592 85.7274 59.6865 85.9784 58.5037ZM5.12745 56.1616L23.8298 50.9733L67.9579 38.7275L72.7064 37.4081C72.7931 37.3847 72.8796 37.3737 72.9641 37.3737C73.345 37.3737 73.8004 37.6236 73.9336 38.1023L74.4911 40.1101L76.2379 46.4045L6.73768 65.691L4.43333 57.3899C4.28896 56.869 4.60672 56.306 5.12745 56.1616ZM85.7174 80.5555C85.8063 80.8776 85.7131 81.1441 85.6186 81.3108C85.5254 81.4773 85.3454 81.6951 85.0233 81.7838L17.4433 100.538C17.3578 100.562 17.2701 100.574 17.1855 100.574C16.8047 100.574 16.3492 100.323 16.2161 99.8443L9.34421 75.0806L78.8445 55.7929L83.0833 71.066L85.7174 80.5555Z" fill="#3A5BD1"/>
<path d="M28.363 82.2503C28.0387 81.0842 26.8216 80.3957 25.6555 80.7189L17.763 82.9099C16.5981 83.2331 15.9085 84.4514 16.2328 85.6175L18.4227 93.5088C18.747 94.6749 19.9642 95.3634 21.1302 95.0391L29.0227 92.8492C30.1888 92.526 30.8772 91.3077 30.554 90.1417L28.363 82.2503Z" fill="#3A5BD1"/>
</g>
<defs>
<clipPath id="clip0">
<rect width="111" height="111" fill="white"/>
</clipPath>
</defs>
</svg>
