<svg width="21" height="21" viewBox="0 0 21 21" fill="none" xmlns="http://www.w3.org/2000/svg">
<path d="M20 10.5C20 15.7467 15.7467 20 10.5 20C5.25329 20 1 15.7467 1 10.5C1 5.25329 5.25329 1 10.5 1C15.7467 1 20 5.25329 20 10.5Z" fill="#039BE5" stroke="white" stroke-width="2"/>
<path d="M4.80449 10.2726L14.9282 6.36918C15.3981 6.19943 15.8085 6.48381 15.6562 7.19431L15.6571 7.19343L13.9334 15.3143C13.8056 15.8901 13.4635 16.0301 12.9849 15.7588L10.3599 13.8242L9.09374 15.0439C8.95374 15.1839 8.83561 15.3021 8.56436 15.3021L8.75074 12.6307L13.6157 8.23556C13.8275 8.04918 13.5685 7.94418 13.2894 8.12968L7.27724 11.9149L4.68549 11.1064C4.12286 10.9279 4.11061 10.5438 4.80449 10.2726Z" fill="white"/>
</svg>
