<svg width="28" height="27" viewBox="0 0 28 27" fill="none" xmlns="http://www.w3.org/2000/svg">
<path d="M14 0C6.28062 0 0 6.05579 0 13.5C0 20.9442 6.28062 27 14 27C21.7194 27 28 20.9442 28 13.5C28 6.05579 21.7194 0 14 0ZM21.805 8.99775L13.1896 18.3439C12.9775 18.5739 12.6818 18.6923 12.3841 18.6923C12.1477 18.6923 11.9102 18.6175 11.7115 18.4649L6.32692 14.311C5.86277 13.9533 5.78738 13.2996 6.15892 12.8515C6.52992 12.4034 7.20838 12.3307 7.67254 12.689L12.2586 16.2265L20.195 7.61712C20.5892 7.18823 21.2708 7.14981 21.7151 7.53092C22.1598 7.91256 22.2002 8.56887 21.805 8.99775Z" fill="#3A5BD1"/>
</svg>
