<svg xmlns="http://www.w3.org/2000/svg" width="575.782" height="63.031" viewBox="0 0 575.782 63.031">
  <metadata><?xpacket begin="﻿" id="W5M0MpCehiHzreSzNTczkc9d"?>
<x:xmpmeta xmlns:x="adobe:ns:meta/" x:xmptk="Adobe XMP Core 5.6-c142 79.160924, 2017/07/13-01:06:39        ">
   <rdf:RDF xmlns:rdf="http://www.w3.org/1999/02/22-rdf-syntax-ns#">
      <rdf:Description rdf:about=""/>
   </rdf:RDF>
</x:xmpmeta>
                                                                                                    
                                                                                                    
                                                                                                    
                                                                                                    
                                                                                                    
                                                                                                    
                                                                                                    
                                                                                                    
                                                                                                    
                                                                                                    
                                                                                                    
                                                                                                    
                                                                                                    
                                                                                                    
                                                                                                    
                                                                                                    
                                                                                                    
                                                                                                    
                                                                                                    
                                                                                                    
                           
<?xpacket end="w"?></metadata>
<defs>
    <style>
      .cls-1 {
        fill: #fff;
        fill-rule: evenodd;
      }
    </style>
  </defs>
  <path id="EDPLATFORMA_2020" data-name="EDPLATFORMA 2020" class="cls-1" d="M225.071,540.518v-8.8h-26.4v61.6h26.4v-8.8h-16.72v-18.04h13.288v-8.8H208.351v-17.16h16.72Zm24.375,52.8q14.432,0,14.432-15.224V546.942q0-15.224-14.432-15.224H234.134v61.6h15.312ZM254.2,546.5v32.032q0,5.986-4.928,5.984h-5.456v-44h5.456q4.927,0,4.928,5.984h0Zm18.919-14.784v61.6h9.68V570.174h4.576q14.432,0,14.432-15.224v-8.008q0-15.224-14.432-15.224H273.117Zm17.82,10.12q1.188,1.32,1.188,4.488v9.24q0,3.168-1.188,4.488a4.553,4.553,0,0,1-3.564,1.32H282.8V540.518h4.576A4.553,4.553,0,0,1,290.937,541.838Zm44.483,51.48v-8.8H319.492v-52.8h-9.68v61.6H335.42Zm14.607-61.6-9.856,61.6h8.888l1.672-11.176h11.88l1.672,11.176h9.768l-9.856-61.6H350.027Zm11.264,42.064h-9.328l4.664-31.152Zm27.632-33.264v52.8h9.68v-52.8h10.12v-8.8H378.8v8.8h10.12Zm52.711,0v-8.8H416.026v61.6h9.68V567.886h12.5v-8.8h-12.5V540.518h15.928Zm21.647-.7q5.016,0,5.016,6.072V579.15q0,6.072-5.016,6.072t-5.016-6.072V545.886Q458.265,539.814,463.281,539.814Zm-10.912,50.16q3.783,4.048,10.912,4.048t10.912-4.048q3.783-4.046,3.784-11.44V546.5q0-7.392-3.784-11.44t-10.912-4.048q-7.128,0-10.912,4.048t-3.784,11.44v32.032Q448.585,585.926,452.369,589.974Zm63.976-4.136v-9.5q0-10.381-6.424-13.112,6.336-2.989,6.336-12.5v-4.84q0-7.213-3.432-10.692t-10.912-3.476H487.305v61.6h9.68v-25.08h3.344q3.344,0,4.84,1.8t1.5,6.028v9.68a25.109,25.109,0,0,0,.88,7.568H517.4a20.02,20.02,0,0,1-1.056-7.48h0Zm-9.768-38.984v6.072q0,3.52-1.452,5.016a5.8,5.8,0,0,1-4.356,1.5h-3.784v-18.92h4.664q4.928,0,4.928,6.336h0Zm19.1-15.136v61.6h8.448v-43.56l7.216,43.56h9.152l6.688-44.176v44.176h9.152v-61.6H552.864l-6.6,43.736-7.128-43.736H525.672Zm58.079,0-9.856,61.6h8.888l1.672-11.176h11.88l1.672,11.176h9.768l-9.856-61.6H583.751Zm11.264,42.064h-9.328l4.664-31.152Zm54.252-17.864a28.613,28.613,0,0,1-4.8,7.172q-2.817,3.036-5.632,6.16a30.022,30.022,0,0,0-4.8,7.3,21.208,21.208,0,0,0-1.98,9.2v7.568h27.984v-8.8h-18.3a7.254,7.254,0,0,1-.088-1.32,10.645,10.645,0,0,1,1.98-5.764,43.541,43.541,0,0,1,4.8-6.028q2.815-2.989,5.676-6.424a31.376,31.376,0,0,0,4.84-8.272,26.692,26.692,0,0,0,1.98-10.208q0-7.477-3.7-11.484t-10.736-4q-7.041,0-10.736,4t-3.7,11.484v5.984h9.152v-6.6q0-6.072,5.016-6.072a4.585,4.585,0,0,1,3.74,1.54q1.275,1.54,1.276,5.5A20.711,20.711,0,0,1,649.267,555.918Zm34.628-16.1q5.016,0,5.015,6.072V579.15q0,6.072-5.015,6.072t-5.016-6.072V545.886Q678.879,539.814,683.9,539.814Zm-10.912,50.16q3.782,4.048,10.912,4.048t10.912-4.048q3.781-4.046,3.783-11.44V546.5q0-7.392-3.783-11.44T683.9,531.014q-7.128,0-10.912,4.048T669.2,546.5v32.032Q669.2,585.926,672.983,589.974Zm52.139-34.056a28.613,28.613,0,0,1-4.8,7.172q-2.817,3.036-5.632,6.16a30.022,30.022,0,0,0-4.8,7.3,21.208,21.208,0,0,0-1.98,9.2v7.568H735.9v-8.8H717.6a7.254,7.254,0,0,1-.088-1.32,10.645,10.645,0,0,1,1.98-5.764,43.541,43.541,0,0,1,4.8-6.028q2.816-2.989,5.676-6.424a31.376,31.376,0,0,0,4.84-8.272,26.692,26.692,0,0,0,1.98-10.208q0-7.477-3.7-11.484t-10.736-4q-7.041,0-10.736,4t-3.7,11.484v5.984h9.152v-6.6q0-6.072,5.016-6.072a4.585,4.585,0,0,1,3.74,1.54q1.275,1.54,1.276,5.5A20.711,20.711,0,0,1,725.122,555.918Zm34.628-16.1q5.016,0,5.016,6.072V579.15q0,6.072-5.016,6.072t-5.016-6.072V545.886Q754.734,539.814,759.75,539.814Zm-10.912,50.16q3.783,4.048,10.912,4.048t10.912-4.048q3.783-4.046,3.784-11.44V546.5q0-7.392-3.784-11.44t-10.912-4.048q-7.128,0-10.912,4.048t-3.784,11.44v32.032Q745.054,585.926,748.838,589.974Z" transform="translate(-198.656 -531)"/>
</svg>
