<svg width="11" height="364" viewBox="0 0 11 364" fill="none" xmlns="http://www.w3.org/2000/svg">
<path d="M11 5.5C11 6.22227 10.8577 6.93747 10.5813 7.60476C10.3049 8.27205 9.89981 8.87837 9.38909 9.38909C8.87837 9.89981 8.27205 10.3049 7.60476 10.5813C6.93747 10.8577 6.22227 11 5.5 11C4.77773 11 4.06253 10.8577 3.39524 10.5813C2.72795 10.3049 2.12164 9.89981 1.61091 9.38909C1.10019 8.87836 0.695064 8.27205 0.418663 7.60476C0.142263 6.93747 8.90531e-07 6.22227 9.53674e-07 5.5L5.5 5.5H11Z" fill="#3A5BD1"/>
<path d="M-4.72849e-07 358.5C-4.09706e-07 357.778 0.142261 357.063 0.418663 356.395C0.695063 355.728 1.10019 355.122 1.61091 354.611C2.12164 354.1 2.72795 353.695 3.39524 353.419C4.06253 353.142 4.77773 353 5.5 353C6.22227 353 6.93747 353.142 7.60476 353.419C8.27205 353.695 8.87837 354.1 9.38909 354.611C9.89981 355.122 10.3049 355.728 10.5813 356.395C10.8577 357.063 11 357.778 11 358.5L5.5 358.5L-4.72849e-07 358.5Z" fill="#3A5BD1"/>
<line x1="5.5" y1="353" x2="5.50002" y2="6" stroke="#3A5BD1" stroke-dasharray="5 2"/>
</svg>
