<svg width="16" height="16" viewBox="0 0 16 16" fill="none" xmlns="http://www.w3.org/2000/svg">
<path d="M15.711 3.56124L14.3071 2.1574C14.1146 1.96476 13.8805 1.86841 13.6053 1.86841C13.3299 1.86841 13.0958 1.96476 12.9033 2.1574L6.13161 8.93934L3.09675 5.89414C2.90405 5.70143 2.67008 5.60519 2.3949 5.60519C2.11954 5.60519 1.88558 5.70143 1.69287 5.89414L0.289027 7.29802C0.0963182 7.4907 0 7.72473 0 8.00006C0 8.27516 0.0963182 8.50941 0.289027 8.70205L4.02573 12.4387L5.42969 13.8425C5.62229 14.0353 5.85632 14.1316 6.13161 14.1316C6.40679 14.1316 6.64082 14.0351 6.83353 13.8425L8.23745 12.4387L15.711 4.9652C15.9035 4.77249 16 4.53849 16 4.26317C16.0001 3.98799 15.9035 3.75395 15.711 3.56124Z" fill="#31C82E"/>
</svg>
