<svg width="99" height="99" viewBox="0 0 99 99" fill="none" xmlns="http://www.w3.org/2000/svg">
<path d="M90.2643 47.2021H8.73573C3.932 47.2021 0 51.1341 0 55.9342V79.2295C0 84.0381 3.932 87.9701 8.73573 87.9701H23.3909C23.3652 87.7997 23.2953 87.655 23.2953 87.4833V75.8382C23.2953 74.1008 24.7126 72.6835 26.4548 72.6835H72.5501C74.2874 72.6835 75.7047 74.1057 75.7047 75.8382V87.4833C75.7047 87.655 75.6348 87.7997 75.6128 87.9701H90.268C95.0729 87.9701 99 84.0381 99 79.2295V55.9342C98.9914 51.1341 95.068 47.2021 90.2643 47.2021ZM84.4368 65.3994C82.4273 65.3994 80.799 63.7712 80.799 61.758C80.799 59.7485 82.4273 58.1203 84.4368 58.1203C86.4512 58.1203 88.0782 59.7485 88.0782 61.758C88.0782 63.7712 86.4512 65.3994 84.4368 65.3994Z" fill="#3A5BD1"/>
<path d="M72.7867 75.5928H26.1998V81.7795H72.7867V75.5928Z" fill="#3A5BD1"/>
<path d="M75.7047 28.5807L58.1535 11.0283H23.3001V44.3724H75.7047V28.5807ZM59.2497 27.4834V13.6791L73.0539 27.4834H59.2497Z" fill="#3A5BD1"/>
</svg>
