<svg width="299" height="365" viewBox="0 0 299 365" fill="none" xmlns="http://www.w3.org/2000/svg">
<path d="M280.96 52.3182C276.716 51.4813 271.037 51.2422 264.88 51.3618C236.127 51.9596 207.912 43.6503 184.36 27.2111L156.743 7.96232C152.379 4.9136 146.521 4.9136 142.158 7.96232L115.377 26.7927C92.0644 43.1721 64.1485 51.7802 35.6946 51.1824C28.88 51.0629 22.5436 51.302 17.881 52.2585C10.0502 53.8725 4.55071 60.9264 5.02893 68.9368L13.1586 207.145C15.0715 244.388 33.8415 278.701 64.2083 300.401L149.45 360L234.693 300.401C265 278.701 283.829 244.388 285.742 207.145L293.872 68.9368C294.35 60.9862 288.851 53.8725 280.96 52.3182Z" stroke="white" stroke-width="10" stroke-miterlimit="10" stroke-linecap="round" stroke-linejoin="round"/>
<path d="M149.51 249.051C190.613 249.051 223.933 215.729 223.933 174.626C223.933 133.522 190.613 100.201 149.51 100.201C108.408 100.201 75.0878 133.522 75.0878 174.626C75.0878 215.729 108.408 249.051 149.51 249.051Z" stroke="white" stroke-width="10" stroke-miterlimit="10" stroke-linecap="round" stroke-linejoin="round"/>
<path d="M119.921 178.392L140.245 198.657L179.04 150.535" stroke="white" stroke-width="10" stroke-miterlimit="10" stroke-linecap="round" stroke-linejoin="round"/>
</svg>
